<?xml version="1.0" ?><svg viewBox="0 0 64 64" xmlns="http://www.w3.org/2000/svg"><defs><style>.cls-1{fill:none;stroke:#000;stroke-linecap:round;stroke-linejoin:round;stroke-width:2px;}</style></defs><title/><g data-name="Layer 6" id="Layer_6"><path class="cls-1" d="M50.6,17.15V46.23A4.64,4.64,0,0,1,46,50.86H17.4a4.64,4.64,0,0,1-4.62-4.62V17.15a4.64,4.64,0,0,1,4.62-4.62H46"/><circle cx="50.65" cy="13.82" r="1"/><path class="cls-1" d="M32.19,43.85H29.45a.93.93,0,0,1-.93-.93h0A.93.93,0,0,0,27.6,42H25.19a.93.93,0,0,1-.93-.93v-.28a.93.93,0,0,0-.93-.93H21.86a1.31,1.31,0,0,1-1.31-1.31h0a.39.39,0,0,1,.36-.38c3.32-.33,4.75-5.1,4.75-5.1H24.22a1.66,1.66,0,0,1-1.66-1.66h0a1.66,1.66,0,0,1,1.66-1.66h1.45V26.94a6.82,6.82,0,0,1,6.8-6.8h0a6.82,6.82,0,0,1,6.8,6.8v2.83h1.45a1.66,1.66,0,0,1,1.66,1.66h0a1.66,1.66,0,0,1-1.66,1.66H39.27s1.44,4.77,4.75,5.1a.39.39,0,0,1,.36.38h0a1.31,1.31,0,0,1-1.31,1.31H41.6a.93.93,0,0,0-.93.93v.28a.93.93,0,0,1-.93.93H37.34a.93.93,0,0,0-.93.93h0a.93.93,0,0,1-.93.93H32.76"/></g></svg>